#N canvas 2066 35 1825 1041 10;
#X text 177 277 creation arguments are OSC address;
#X text 179 238 set message to change OSC address;
#X text 164 48 1 Set IP Address : network address;
#X text 164 68 2 Set Ports (sending and listening);
#X text 164 87 3 Set OSC Addresses (routing osc data;
#X text 155 26 Key Settings;
#X floatatom 43 194 5 0 0 0 - - - 0;
#N canvas 850 65 623 559 oscReceive 0;
#X obj 55 184 netreceive -u -b;
#X msg 78 143 listen 0;
#X text 152 143 stop listening;
#X text 64 58 packets from network;
#X text 173 177 UDP packets \, binary output, f 13;
#X obj 45 314 print;
#X obj 45 272 oscparse;
#X text 150 114 listen on port 8000;
#X obj 177 269 oscparse;
#X obj 177 293 list trim;
#X floatatom 140 380 5 0 0 0 - - - 0;
#X text 241 267 Parse the OSC message;
#X obj 177 319 route unity;
#X msg 66 115 listen 8000;
#X obj 66 84 loadbang;
#X floatatom 244 382 5 0 0 0 - - - 0;
#X floatatom 339 382 5 0 0 0 - - - 0;
#X obj 243 359 route distance;
#X obj 244 409 s oscdistance;
#X obj 338 359 route playmusic;
#X obj 340 409 s oscplaymusic;
#X obj 139 357 route start;
#X obj 140 407 s oscstart;
#X connect 0 0 6 0;
#X connect 0 0 8 0;
#X connect 1 0 0 0;
#X connect 6 0 5 0;
#X connect 8 0 9 0;
#X connect 9 0 12 0;
#X connect 10 0 22 0;
#X connect 12 0 17 0;
#X connect 12 0 19 0;
#X connect 12 0 21 0;
#X connect 13 0 0 0;
#X connect 14 0 13 0;
#X connect 15 0 18 0;
#X connect 16 0 20 0;
#X connect 17 0 15 0;
#X connect 19 0 16 0;
#X connect 21 0 10 0;
#X restore 45 142 pd oscReceive;
#X obj 41 423 tgl 15 0 empty empty empty 17 7 0 10 #fcfcfc #000000
#000000 0 1;
#X msg 40 448 \; pd dsp \$1;
#X obj 44 278 oscformat PD message;
#X msg 76 239 set PD message;
#N canvas 1050 31 450 300 oscSend 0;
#X msg 158 207 disconnect;
#X obj 61 253 netsend -u -b;
#X obj 59 55 list prepend send;
#X obj 59 80 list trim;
#X msg 150 175 connect 127.0.0.1 8001;
#X obj 59 29 r oscOut;
#X text 301 163 send to port 8001;
#X msg 147 148 connect localhost 8001;
#X obj 147 108 loadbang;
#X connect 0 0 1 0;
#X connect 2 0 3 0;
#X connect 3 0 1 0;
#X connect 4 0 1 0;
#X connect 5 0 2 0;
#X connect 7 0 1 0;
#X connect 8 0 7 0;
#X restore 47 118 pd oscSend;
#X obj 44 313 s oscOut;
#N canvas 14 -24 1920 997 Distortion 0;
#X obj 389 494 mtof;
#X obj 399 13 tgl 15 0 empty empty empty 17 7 0 10 #fcfcfc #000000
#000000 0 1;
#X obj 400 93 bng 15 250 50 0 empty empty empty 17 7 0 10 #fcfcfc #000000
#000000;
#X obj 400 118 i;
#X floatatom 399 181 5 0 0 0 - - - 0;
#X obj 396 727 *~ 0.4;
#X obj 400 151 + 1;
#X obj 396 694 osc~ 130;
#X obj 531 513 *;
#X obj 531 546 osc~;
#X obj 530 616 *~;
#X obj 404 658 +~;
#X obj 530 219 bng 15 250 50 0 empty empty empty 17 7 0 10 #fcfcfc
#000000 #000000;
#X obj 564 218 bng 15 250 50 0 empty empty empty 17 7 0 10 #fcfcfc
#000000 #000000;
#X obj 496 219 bng 15 250 50 0 empty empty empty 17 7 0 10 #fcfcfc
#000000 #000000;
#X obj 598 220 bng 15 250 50 0 empty empty empty 17 7 0 10 #fcfcfc
#000000 #000000;
#X obj 628 217 bng 15 250 50 0 empty empty empty 17 7 0 10 #fcfcfc
#000000 #000000;
#X obj 539 180 sel 0 1 2 3;
#X msg 611 257 4.1;
#X msg 657 258 3.65;
#X obj 580 592 *~;
#X obj 528 141 random 5;
#X obj 399 62 metro 275;
#X obj 359 343 bng 15 250 50 0 empty empty empty 17 7 0 10 #fcfcfc
#000000 #000000;
#X obj 393 342 bng 15 250 50 0 empty empty empty 17 7 0 10 #fcfcfc
#000000 #000000;
#X obj 325 343 bng 15 250 50 0 empty empty empty 17 7 0 10 #fcfcfc
#000000 #000000;
#X obj 427 344 bng 15 250 50 0 empty empty empty 17 7 0 10 #fcfcfc
#000000 #000000;
#X obj 457 341 bng 15 250 50 0 empty empty empty 17 7 0 10 #fcfcfc
#000000 #000000;
#X obj 368 304 sel 0 1 2 3;
#X obj 368 271 % 5;
#X msg 399 382 48;
#X msg 319 381 40;
#X msg 362 382 35;
#X msg 440 381 42;
#X msg 486 382 38;
#X msg 490 257 2.5;
#X msg 532 257 1.2;
#X msg 570 257 0.5;
#X obj 192 1170 dac~;
#X obj 203 1123 *~;
#X floatatom 685 956 0 0 10 0 - - - 0;
#X obj 478 1009 expr~ max(min($v1 \, $f2) \, -$f2);
#X obj 466 1130 dac~;
#X obj 467 1102 *~;
#X obj 729 931 vsl 15 128 0 1 0 0 empty empty empty 0 -9 0 10 #fcfcfc
#000000 #000000 0 1;
#X obj 937 798 bng 15 250 50 0 empty empty empty 17 7 0 10 #fcfcfc
#000000 #000000;
#X obj 936 830 random 100;
#X floatatom 926 867 5 0 0 0 - - - 0;
#X floatatom 923 945 5 0 0 0 - - - 0;
#X obj 926 909 / 100;
#N canvas 0 23 740 505 reverb 0;
#X obj 162 49 inlet~;
#X obj 144 364 outlet~;
#X floatatom 444 156 0 0 120 0 - - - 0;
#X text 485 156 level \, dB;
#X floatatom 472 173 0 0 100 0 - - - 0;
#X text 513 173 liveness \, 0-100;
#X floatatom 507 197 4 0 5000 0 - - - 0;
#X floatatom 542 220 0 0 100 0 - - - 0;
#X text 555 195 crossover frequency \, Hz.;
#X text 578 222 HF damping \, percent;
#X obj 235 233 rev3~ 100 90 3000 20;
#X obj 247 331 *~;
#X floatatom 317 299 5 0 0 0 - - - 0;
#X obj 26 288 *~;
#X floatatom 66 261 5 0 0 0 - - - 0;
#X text 355 299 wet reverb signal;
#X text 103 264 "dry" signal;
#X obj 409 32 receive reverbWetDry;
#X floatatom 410 59 5 0 0 0 - - - 0;
#X obj 250 87 expr 1 - $f1;
#X connect 0 0 13 0;
#X connect 0 0 10 0;
#X connect 2 0 10 2;
#X connect 4 0 10 3;
#X connect 6 0 10 4;
#X connect 7 0 10 5;
#X connect 10 0 11 0;
#X connect 10 1 11 0;
#X connect 10 2 11 0;
#X connect 10 3 11 0;
#X connect 11 0 1 0;
#X connect 12 0 11 1;
#X connect 13 0 1 0;
#X connect 14 0 13 1;
#X connect 17 0 18 0;
#X connect 18 0 12 0;
#X connect 18 0 19 0;
#X connect 19 0 14 0;
#X restore 431 1176 pd reverb;
#X obj 423 1221 dac~;
#X obj 271 1180 hsl 128 15 0 1 0 0 reverbWetDry reverbWetDry Reverb_Wet/Dry
-2 -8 0 10 #fcfcfc #000000 #000000 0 1;
#X obj 270 1124 * 10;
#X text 538 908 THIS SLIDER ADJUSTS FOR BOTH DISTORTION AND REVERB:
----------->, f 15;
#X text 1006 696 DECREASE THIS VALUE FOR HIGHER DISTORTION INTENSITY:
<----------, f 12;
#X obj 538 1109 tgl 15 0 empty empty empty 17 7 0 10 #fcfcfc #000000
#000000 0 1;
#X msg 221 580 0.4 1 \, 0 274 1;
#X obj 936 767 metro 5;
#X obj 446 -6 inlet;
#X obj 333 1222 outlet~;
#X obj 684 869 r disRevb;
#X obj 220 616 vline~;
#X obj 626 873 r NoDoR;
#X msg 650 915 0;
#X connect 0 0 8 0;
#X connect 0 0 11 0;
#X connect 0 0 20 0;
#X connect 1 0 22 0;
#X connect 1 0 58 0;
#X connect 2 0 3 0;
#X connect 2 0 21 0;
#X connect 3 0 6 0;
#X connect 4 0 29 0;
#X connect 5 0 41 0;
#X connect 5 0 39 1;
#X connect 6 0 3 1;
#X connect 6 0 4 0;
#X connect 7 0 5 0;
#X connect 8 0 9 0;
#X connect 9 0 10 0;
#X connect 10 0 11 1;
#X connect 11 0 7 0;
#X connect 12 0 36 0;
#X connect 13 0 37 0;
#X connect 14 0 35 0;
#X connect 15 0 18 0;
#X connect 16 0 19 0;
#X connect 17 0 14 0;
#X connect 17 1 12 0;
#X connect 17 2 13 0;
#X connect 17 3 15 0;
#X connect 17 4 16 0;
#X connect 18 0 20 1;
#X connect 19 0 20 1;
#X connect 20 0 10 1;
#X connect 21 0 17 0;
#X connect 22 0 2 0;
#X connect 22 0 57 0;
#X connect 23 0 32 0;
#X connect 24 0 30 0;
#X connect 25 0 31 0;
#X connect 26 0 33 0;
#X connect 27 0 34 0;
#X connect 28 0 25 0;
#X connect 28 1 23 0;
#X connect 28 2 24 0;
#X connect 28 3 26 0;
#X connect 28 4 27 0;
#X connect 29 0 28 0;
#X connect 30 0 0 0;
#X connect 31 0 0 0;
#X connect 32 0 0 0;
#X connect 33 0 0 0;
#X connect 34 0 0 0;
#X connect 35 0 20 1;
#X connect 36 0 20 1;
#X connect 37 0 20 1;
#X connect 39 0 38 0;
#X connect 39 0 38 1;
#X connect 39 0 60 0;
#X connect 40 0 41 1;
#X connect 41 0 43 0;
#X connect 43 0 42 0;
#X connect 43 0 42 1;
#X connect 43 0 50 0;
#X connect 43 0 60 0;
#X connect 44 0 43 1;
#X connect 45 0 46 0;
#X connect 45 0 52 0;
#X connect 46 0 47 0;
#X connect 47 0 49 0;
#X connect 48 0 44 0;
#X connect 49 0 48 0;
#X connect 50 0 51 0;
#X connect 50 0 51 1;
#X connect 50 0 60 0;
#X connect 53 0 52 0;
#X connect 57 0 62 0;
#X connect 58 0 45 0;
#X connect 59 0 1 0;
#X connect 61 0 53 0;
#X connect 61 0 40 0;
#X connect 62 0 39 0;
#X connect 63 0 64 0;
#X connect 64 0 40 0;
#X restore 463 258 pd Distortion;
#X obj 454 308 dac~;
#X obj 573 200 hsl 128 32 0 0.1 0 0 disRevb disRevb Distortion\\\ and\\\ Reverb
-2 -8 0 10 #fcfcfc #000000 #000000 0 1;
#X obj 464 220 bng 15 250 50 0 empty empty empty 17 7 0 10 #fcfcfc
#000000 #000000;
#X obj 744 214 hsl 128 32 0.2 1 0 0 bpGain bpGain wind_volume -2 -8
0 10 #fcfcfc #000000 #000000 0 1;
#N canvas 99 199 1009 604 SFX_Wind 0;
#X obj 103 199 noise~;
#N canvas 57 139 1563 1020 pass_filters 0;
#X floatatom 223 91 5 0 0 0 - - - 0;
#X floatatom 262 92 5 0 0 0 - - - 0;
#X obj 199 260 *~;
#X floatatom 216 236 5 0 0 0 - - - 0;
#X obj 199 10 inlet~;
#X obj 175 354 outlet~;
#X obj 224 54 receive bpFreq;
#X obj 215 207 receive bpGain;
#X obj 196 125 bp~ 200 10;
#X msg 337 277 0, f 4;
#X obj 433 206 r WindOff;
#X obj 357 205 r WindOn;
#X msg 329 239 0.2;
#X connect 0 0 8 1;
#X connect 1 0 8 2;
#X connect 2 0 5 0;
#X connect 3 0 2 1;
#X connect 4 0 8 0;
#X connect 6 0 0 0;
#X connect 7 0 3 0;
#X connect 8 0 2 0;
#X connect 9 0 3 0;
#X connect 10 0 9 0;
#X connect 11 0 12 0;
#X connect 12 0 3 0;
#X restore 102 256 pd pass_filters;
#X msg 320 397 2250;
#X msg 356 397 2300;
#X msg 392 397 2350;
#X msg 429 397 2400;
#X msg 466 397 2450;
#X msg 502 397 2500;
#X msg 539 397 2550;
#X msg 575 397 2600;
#X msg 611 397 2650;
#X msg 648 397 2700;
#X msg 684 397 2750;
#X msg 719 397 2800;
#X msg 755 397 2850;
#X msg 791 397 2900;
#X msg 827 397 2950;
#X msg 863 397 3000;
#X obj 270 256 sel 1 2 3 4 5 6 7 8 9 10 11 12 13 14 15 16;
#X obj 711 191 sel 33, f 8;
#X obj 568 256 sel 17 18 19 20 21 22 23 24 25 26 27 28 29 30 31 32
;
#X floatatom 550 173 5 0 0 0 - - - 0;
#X msg 600 210 0;
#X obj 550 108 f;
#X obj 583 107 + 1;
#X floatatom 489 126 5 0 0 0 - - - 0;
#X obj 550 42 tgl 15 0 empty empty empty 17 7 0 10 #fcfcfc #000000
#000000 0 1;
#X obj 550 74 metro 250;
#X obj 550 149 mod 34;
#X obj 599 472 s bpFreq;
#X obj 606 23 inlet;
#X obj 102 295 outlet~;
#X connect 0 0 1 0;
#X connect 1 0 31 0;
#X connect 2 0 29 0;
#X connect 3 0 29 0;
#X connect 4 0 29 0;
#X connect 5 0 29 0;
#X connect 6 0 29 0;
#X connect 7 0 29 0;
#X connect 8 0 29 0;
#X connect 9 0 29 0;
#X connect 10 0 29 0;
#X connect 11 0 29 0;
#X connect 12 0 29 0;
#X connect 13 0 29 0;
#X connect 14 0 29 0;
#X connect 15 0 29 0;
#X connect 16 0 29 0;
#X connect 17 0 29 0;
#X connect 18 0 2 0;
#X connect 18 1 3 0;
#X connect 18 2 4 0;
#X connect 18 3 5 0;
#X connect 18 4 6 0;
#X connect 18 5 7 0;
#X connect 18 6 8 0;
#X connect 18 7 9 0;
#X connect 18 8 10 0;
#X connect 18 9 11 0;
#X connect 18 10 12 0;
#X connect 18 11 13 0;
#X connect 18 12 14 0;
#X connect 18 13 15 0;
#X connect 18 14 16 0;
#X connect 18 15 17 0;
#X connect 19 0 22 0;
#X connect 20 0 17 0;
#X connect 20 1 16 0;
#X connect 20 2 15 0;
#X connect 20 3 14 0;
#X connect 20 4 13 0;
#X connect 20 5 12 0;
#X connect 20 6 11 0;
#X connect 20 7 10 0;
#X connect 20 8 9 0;
#X connect 20 9 8 0;
#X connect 20 10 7 0;
#X connect 20 11 6 0;
#X connect 20 12 5 0;
#X connect 20 13 4 0;
#X connect 20 14 3 0;
#X connect 20 15 2 0;
#X connect 21 0 18 0;
#X connect 21 0 20 0;
#X connect 21 0 19 0;
#X connect 22 0 21 0;
#X connect 23 0 25 0;
#X connect 23 0 24 0;
#X connect 23 0 28 0;
#X connect 24 0 23 1;
#X connect 26 0 27 0;
#X connect 27 0 23 0;
#X connect 28 0 21 0;
#X connect 30 0 26 0;
#X restore 926 238 pd SFX_Wind;
#X obj 918 282 dac~;
#X obj 926 205 bng 15 250 50 0 empty empty Change\\\ Wind\\\ Frequency
17 7 0 10 #fcfcfc #000000 #000000;
#X obj 766 335 bng 15 250 50 0 WindOff empty Turn\ Wind\ Off 17 7 0
10 #00ff04 #000000 #000000;
#X obj 767 310 bng 15 250 50 0 WindOn empty Turn\\\ Wind\\\ On 17 7
0 10 #fcfcfc #000000 #000000;
#N canvas 1416 360 450 300 SFX_HeartBeat 0;
#X obj 125 153 readsf~;
#X obj 124 211 *~;
#X obj 52 138 tgl 15 0 empty empty empty 17 7 0 10 #fcfcfc #000000
#000000 0 1;
#X msg 125 99 open Heart_Beat2.wav;
#X obj 125 46 loadbang;
#X obj 190 192 r HeartVol;
#X obj 52 106 inlet;
#X obj 123 260 outlet~;
#X obj 215 46 r loadHeart;
#X obj 344 81 bng 15 250 50 0 empty empty empty 17 7 0 10 #fcfcfc #000000
#000000;
#X msg 221 243 0;
#X obj 297 224 r stopHeart;
#X connect 0 0 1 0;
#X connect 1 0 7 0;
#X connect 2 0 0 0;
#X connect 3 0 0 0;
#X connect 4 0 3 0;
#X connect 5 0 1 1;
#X connect 6 0 2 0;
#X connect 8 0 3 0;
#X connect 8 0 9 0;
#X connect 10 0 1 1;
#X connect 11 0 10 0;
#X restore 1145 312 pd SFX_HeartBeat;
#X obj 1146 361 dac~;
#X obj 1138 165 hsl 128 32 0.25 2 0 0 HeartVol HeartVol heart_volume
-2 -8 0 10 #fcfcfc #000000 #000000 0 1;
#X obj 1145 262 bng 15 250 50 0 empty empty Toggle\\\ Heartbeat 17
7 0 10 #fcfcfc #000000 #000000;
#X obj 1324 268 bng 15 250 50 0 loadHeart loadHeart load\\\ heartbeat
17 7 0 10 #fcfcfc #000000 #000000;
#X obj 1324 295 bng 15 250 50 0 stopHeart empty stop\ heart 17 7 0
10 #9c00ff #000000 #000000;
#X obj 465 190 r oscstart;
#X obj 1309 183 r oscstart;
#X obj 682 83 r oscdistance;
#X obj 600 118 * 0.1;
#X floatatom 600 158 5 0 0 0 - - disRevb 0;
#X obj 932 119 r oscstart;
#X obj 1154 219 r oscplaymusic;
#X obj 762 255 r oscstart;
#X floatatom 783 158 5 0 0 0 - - HeartVol 0;
#X obj 783 118 * 2;
#X text 559 48 receiving the distance variable and distruting it to
the respective variables;
#X text 710 457 Sliders will only work when the game is not playing
\, as the variables are being set every frame;
#X text 1165 497 if music isn't working \, restart game to toggle it
back on;
#X obj 508 306 bng 15 250 50 0 NoDoR empty Turn\ Off\ Distortion\ and\ Reverb
17 7 0 10 #00faff #000000 #000000;
#X obj 83 391 r oscstart;
#X obj 79 416 bng 15 250 50 0 empty empty Turn\ off\ DSP 17 7 0 10
#bbbbbb #000000 #000000;
#X obj 257 337 bng 15 250 50 0 empty empty Turn\ Off\ everything 17
7 0 10 #ff0400 #000000 #000000;
#X connect 6 0 10 0;
#X connect 8 0 9 0;
#X connect 10 0 13 0;
#X connect 11 0 10 0;
#X connect 14 0 15 0;
#X connect 14 0 15 1;
#X connect 17 0 14 0;
#X connect 19 0 20 0;
#X connect 19 0 20 1;
#X connect 21 0 19 0;
#X connect 24 0 25 0;
#X connect 24 0 25 1;
#X connect 27 0 24 0;
#X connect 30 0 17 0;
#X connect 31 0 28 0;
#X connect 32 0 33 0;
#X connect 32 0 39 0;
#X connect 33 0 34 0;
#X connect 35 0 21 0;
#X connect 36 0 27 0;
#X connect 37 0 23 0;
#X connect 39 0 38 0;
#X connect 44 0 45 0;
#X connect 45 0 8 0;
#X connect 46 0 45 0;
#X connect 46 0 43 0;
#X connect 46 0 22 0;
#X connect 46 0 29 0;
